<svg width="500" height="500" viewBox="0 0 500 500" fill="none" xmlns="http://www.w3.org/2000/svg">
<rect width="500" height="500" fill="white"/>
<path fill-rule="evenodd" clip-rule="evenodd" d="M237.582 289.647C262.853 245.875 283.482 210.157 308.743 166.392C309.118 165.745 309.524 165.116 309.959 164.506C310.398 163.9 310.859 163.312 311.354 162.75C311.849 162.188 312.37 161.649 312.917 161.139C313.46 160.626 314.033 160.142 314.624 159.685C315.22 159.231 315.833 158.807 316.469 158.408C317.106 158.014 317.76 157.65 318.43 157.318C319.103 156.987 319.788 156.693 320.491 156.429C321.19 156.165 321.901 155.935 322.626 155.741C323.348 155.548 324.081 155.391 324.818 155.269C325.558 155.146 326.298 155.06 327.046 155.012C327.794 154.964 328.542 154.952 329.289 154.975C330.037 155.001 330.785 155.06 331.525 155.161C332.269 155.257 333.002 155.391 333.731 155.562C334.461 155.73 335.182 155.938 335.889 156.176C336.6 156.418 337.295 156.693 337.976 157.002C338.657 157.311 339.323 157.653 339.97 158.025L250.781 312.512L237.582 289.647Z" fill="#AE4B1E"/>
<path d="M218.692 256.922L231.89 279.781L245.088 256.922L231.889 234.059L231.888 234.061L231.89 234.063L218.692 256.922Z" fill="#F6921E"/>
<path d="M231.888 234.061L226.321 224.413L218.691 256.921L218.692 256.922L231.888 234.061Z" fill="#AE4B1E"/>
<path d="M192.809 166.362C192.437 165.715 192.031 165.086 191.596 164.476C191.157 163.87 190.692 163.282 190.201 162.72C189.706 162.158 189.185 161.619 188.638 161.106C188.092 160.596 187.522 160.112 186.927 159.655C186.336 159.201 185.718 158.773 185.086 158.379C184.449 157.984 183.795 157.62 183.121 157.289C182.452 156.958 181.763 156.66 181.064 156.396C180.365 156.132 179.65 155.905 178.929 155.711C178.203 155.518 177.474 155.358 176.734 155.235C175.997 155.116 175.253 155.03 174.505 154.982C173.757 154.93 173.01 154.919 172.262 154.945C171.514 154.967 170.77 155.03 170.026 155.127C169.282 155.224 168.549 155.358 167.82 155.529C167.091 155.7 166.369 155.905 165.662 156.147C164.952 156.385 164.256 156.66 163.575 156.972C162.894 157.281 162.228 157.62 161.577 157.996L218.691 256.921L226.321 224.413L231.888 234.061L231.889 234.059L192.809 166.362Z" fill="#F6921E"/>
<path fill-rule="evenodd" clip-rule="evenodd" d="M218.692 256.922L231.89 279.781L218.69 256.924L218.691 256.921L218.692 256.922ZM218.692 256.922L231.888 234.061L231.89 234.063L218.692 256.922ZM245.088 256.922L231.89 279.781L245.089 256.924L245.088 256.922Z" fill="#AE4B1E"/>
<path d="M272.184 164.476C271.749 165.086 271.343 165.715 270.967 166.362L231.889 234.059L245.088 256.922L302.202 157.996C301.555 157.62 300.889 157.281 300.208 156.969C299.524 156.66 298.828 156.385 298.121 156.147C297.411 155.905 296.693 155.7 295.964 155.529C295.234 155.358 294.498 155.224 293.754 155.127C293.013 155.027 292.266 154.967 291.518 154.941C290.77 154.919 290.022 154.93 289.275 154.978C288.527 155.027 287.786 155.112 287.046 155.235C286.306 155.358 285.577 155.514 284.851 155.708C284.129 155.901 283.415 156.132 282.716 156.396C282.016 156.66 281.328 156.958 280.658 157.289C279.985 157.62 279.33 157.981 278.694 158.379C278.058 158.773 277.444 159.197 276.849 159.655C276.257 160.112 275.685 160.596 275.138 161.106C274.595 161.619 274.074 162.155 273.579 162.72C273.084 163.282 272.619 163.87 272.184 164.476Z" fill="#F6921E"/>
<path fill-rule="evenodd" clip-rule="evenodd" d="M250 334C283.152 334 314.946 320.83 338.388 297.388C361.83 273.946 375 242.152 375 209C375 175.848 361.83 144.054 338.388 120.612C314.946 97.1696 283.152 84 250 84C216.848 84 185.054 97.1696 161.612 120.612C138.17 144.054 125 175.848 125 209C125 242.152 138.17 273.946 161.612 297.388C185.054 320.83 216.848 334 250 334ZM172.66 286.34C193.172 306.852 220.992 318.375 250 318.375C279.008 318.375 306.828 306.852 327.34 286.34C347.852 265.828 359.375 238.008 359.375 209C359.375 179.992 347.852 152.172 327.34 131.66C306.828 111.148 279.008 99.625 250 99.625C220.992 99.625 193.172 111.148 172.66 131.66C152.148 152.172 140.625 179.992 140.625 209C140.625 238.008 152.148 265.828 172.66 286.34Z" fill="#AE4B1E"/>
<path d="M162.96 398L150.72 364.4H157.632L166.944 391.376L176.304 364.4H183.168L170.928 398H162.96ZM187.203 398V364.4H193.683V398H187.203ZM200.281 398V364.4H212.809C215.529 364.4 217.769 364.864 219.529 365.792C221.289 366.72 222.601 367.968 223.465 369.536C224.329 371.072 224.761 372.784 224.761 374.672C224.761 376.464 224.345 378.144 223.513 379.712C222.681 381.248 221.369 382.496 219.577 383.456C217.817 384.384 215.545 384.848 212.761 384.848H206.761V398H200.281ZM217.705 398L210.793 383.216H217.801L225.097 398H217.705ZM206.761 380.144H212.425C214.377 380.144 215.817 379.664 216.745 378.704C217.673 377.744 218.137 376.48 218.137 374.912C218.137 373.344 217.673 372.112 216.745 371.216C215.849 370.288 214.409 369.824 212.425 369.824H206.761V380.144ZM230.562 398V364.4H252.642V369.632H237.042V378.416H251.202V383.456H237.042V392.768H252.642V398H230.562ZM258.546 398V364.4H265.026L280.482 387.584V364.4H286.962V398H280.482L265.026 374.864V398H258.546ZM301.339 398V369.632H291.499V364.4H317.563V369.632H307.771V398H301.339ZM316.337 398L328.625 364.4H335.969L348.209 398H341.345L332.273 371.792L323.153 398H316.337ZM321.761 390.368L323.489 385.328H340.577L342.257 390.368H321.761Z" fill="#AE4B1E"/>
</svg>
